# xmcd
#
# Track frame offsets:
#	150
#	3356
#	16723
#	22323
#	31330
#	47031
#	57899
#	74087
#	90153
#	93337
#	97677
#	107216
#	111272
#	124773
#	136869
#	141912
#	156692
#	161174
#	175962
#	197980
#	201525
#	204125
#	219727
#	233653
#	236932
#	247965
#	262906
#
# Disc length: 3824 seconds
#
# Revision: 0
# Processed by: cddbd v1.5.2PL0 Copyright (c) Steve Scherf et al.
# Submitted via: audiograbber 1.83.01
#
DISCID=810eee1b
DTITLE=JIRI SLITR - Plakala panna, plakala
DYEAR=2014
DGENRE=Blues
TTITLE0=Plakala panna, plakala
TTITLE1=Hluboka vraska
TTITLE2=Tak to byla jedna pisnicka z Reduty
TTITLE3=Cerna vrana
TTITLE4=Cop
TTITLE5=Host Jiriho Slitra: Jiri Slitr
TTITLE6=Jackova pisen
TTITLE7=Honky tonky blues
TTITLE8=Plakala panna, plakala
TTITLE9=Prosim vas, nema nahodou nekdo kalendar
TTITLE10=Magdalena
TTITLE11=Kdepak, ja mel pravdu...
TTITLE12=Babetta
TTITLE13=Betty
TTITLE14=Neni nad system...
TTITLE15=Pisnicka pro Zuzanu
TTITLE16=Host Jiriho Slitra: Jiri Suchy
TTITLE17=Zasu
TTITLE18=Margareta
TTITLE19=Plakala panna, plakala
TTITLE20=A proc? Slysis to? Nekdo tu hraje blues...
TTITLE21=Co je blues
TTITLE22=Nevyplaceny blues
TTITLE23=Tak tedy co je ten blues?...
TTITLE24=Drozkar
TTITLE25=Blues samotarky
TTITLE26=Cerna Jessie
EXTD=
EXTT0=
EXTT1=
EXTT2=
EXTT3=
EXTT4=
EXTT5=
EXTT6=
EXTT7=
EXTT8=
EXTT9=
EXTT10=
EXTT11=
EXTT12=
EXTT13=
EXTT14=
EXTT15=
EXTT16=
EXTT17=
EXTT18=
EXTT19=
EXTT20=
EXTT21=
EXTT22=
EXTT23=
EXTT24=
EXTT25=
EXTT26=
PLAYORDER=
